<svg xmlns:xlink="http://www.w3.org/1999/xlink" width="null" height="null" fill="none" xmlns="http://www.w3.org/2000/svg" alt="OBJECTIVES" class="progress-bar__ProgressImage-sc-175851r-4 jDftMw"><path d="M18.797 9.458a7.65 7.65 0 011.213 4.124c0 4.214-3.427 7.64-7.642 7.64-4.214 0-7.64-3.426-7.64-7.64 0-4.215 3.426-7.642 7.64-7.642a7.62 7.62 0 014.185 1.244" fill="#FFFFFF" stroke="#DADCEC"></path><path d="M18.797 9.458a7.65 7.65 0 011.213 4.124c0 4.214-3.427 7.64-7.642 7.64-4.214 0-7.64-3.426-7.64-7.64 0-4.215 3.426-7.642 7.64-7.642a7.62 7.62 0 014.185 1.244" stroke="#DADCEC" stroke-miterlimit="10" fill="#FFFFFF"></path><path d="M21.283 7.123l-3.275 3.275-2.456.09.091-2.486 3.275-3.274c-.03.788-.03 1.607-.06 2.395h2.425z" fill="#FFFFFF" stroke-miterlimit="10" stroke-linejoin="round" stroke="#DADCEC"></path><svg fill="none"><path d="M16.978 13.582a4.64 4.64 0 01-4.64 4.639A4.62 4.62 0 017.7 13.58a4.62 4.62 0 014.64-4.639 4.57 4.57 0 013.335 1.425l.151.152a4.56 4.56 0 011.153 3.063z" stroke="#DADCEC" stroke-miterlimit="10" fill="none"></path><path d="M21.283 7.123l-3.275 3.275-2.456.09.091-2.486 3.275-3.274c-.03.788-.03 1.607-.06 2.395h2.425z" stroke="#DADCEC" stroke-miterlimit="10" stroke-linejoin="round" fill="none"></path><path d="M15.552 10.428L12.4 13.61" stroke="#DADCEC" stroke-miterlimit="10" stroke-linecap="round" stroke-linejoin="round" fill="none"></path></svg></svg>